<svg width="56" height="57" viewBox="0 0 56 57" fill="none" xmlns="http://www.w3.org/2000/svg">
<rect x="1" y="-1" width="54" height="54" rx="27" transform="matrix(1 -8.74228e-08 -8.74228e-08 -1 -8.74228e-08 54.6512)" stroke="#111116" stroke-width="2"/>
<path d="M29.0312 21.7137C29.3437 22.0262 29.3125 22.4949 29.0312 22.8074L25.25 26.4012L34.25 26.4012C34.6562 26.4012 35 26.7137 35 27.1512L35 28.1512C35 28.5574 34.6562 28.9012 34.25 28.9012L25.25 28.9012L29.0312 32.4637C29.3125 32.7762 29.3437 33.2449 29.0312 33.5574L28.3437 34.2449C28.0625 34.5262 27.5625 34.5262 27.2812 34.2449L21.2187 28.1512C20.9062 27.8699 20.9062 27.4012 21.2187 27.1199L27.2812 21.0262C27.5625 20.7449 28.0312 20.7449 28.3437 21.0262L29.0312 21.7137Z" fill="#111116"/>
</svg>
