<svg width="42" height="41" viewBox="0 0 42 41" fill="none" xmlns="http://www.w3.org/2000/svg">
<g clip-path="url(#clip0_3_43)">
<rect opacity="0.1" y="0.496094" width="42" height="40" rx="20" fill="white"/>
<path opacity="0.6" d="M28.9583 21.017C28.9583 20.517 28.8958 20.142 28.8333 19.7357H21.4583V22.392H25.8333C25.6771 23.5482 24.5208 25.7357 21.4583 25.7357C18.8021 25.7357 16.6458 23.5482 16.6458 20.8295C16.6458 16.4857 21.7708 14.4857 24.5208 17.142L26.6458 15.1107C25.3021 13.8607 23.5208 13.0795 21.4583 13.0795C17.1458 13.0795 13.7083 16.5482 13.7083 20.8295C13.7083 25.142 17.1458 28.5795 21.4583 28.5795C25.9271 28.5795 28.9583 25.4545 28.9583 21.017Z" fill="white"/>
</g>
<defs>
<clipPath id="clip0_3_43">
<rect width="42" height="40" fill="white" transform="translate(0 0.496094)"/>
</clipPath>
</defs>
</svg>
