<svg width="170" height="68" viewBox="0 0 170 68" fill="none" xmlns="http://www.w3.org/2000/svg">
<path d="M24.8547 18.5338H24.8553C25.9287 18.5338 26.9579 18.9608 27.7161 19.7204L39.1156 31.5813C39.4362 31.9352 39.9928 31.9352 40.3131 31.5813L51.0659 20.3898C47.0505 15.3296 40.8517 12.0806 33.8902 12.0806C21.7845 12.0806 11.9707 21.8943 11.9707 34.0004C11.9707 46.1064 21.7841 55.9198 33.8902 55.9198C39.5794 55.9198 44.7617 53.7523 48.6577 50.1983V35.0051C48.6577 34.645 48.2218 34.4645 47.9672 34.7195L40.9295 42.807C40.2852 43.5469 39.1353 43.5469 38.491 42.807L31.453 34.7195C31.1984 34.4645 30.7628 34.645 30.7628 35.0051V50.6835C26.3724 50.6835 22.814 47.7588 22.814 43.3687V20.5744C22.8143 19.4473 23.7279 18.5338 24.8547 18.5338Z" fill="url(#paint0_linear_3_343)"/>
<path d="M59.7741 39.3105H54.5898C53.9071 39.3105 53.3535 39.8637 53.3535 40.5464V45.7308C53.3535 46.4135 53.9071 46.9673 54.5898 46.9673H59.7741C60.4568 46.9673 61.0103 46.4135 61.0103 45.7308V40.5464C61.0103 39.8637 60.4568 39.3105 59.7741 39.3105Z" fill="url(#paint1_linear_3_343)"/>
<path d="M55.8399 33.0062H59.4082C60.0273 33.0062 60.5289 32.5044 60.5289 31.8852V28.3169C60.5289 27.6981 60.027 27.1963 59.4082 27.1963H55.8399C55.2208 27.1963 54.7189 27.6981 54.7189 28.3169V31.8852C54.7189 32.5047 55.2208 33.0062 55.8399 33.0062Z" fill="url(#paint2_linear_3_343)"/>
<path d="M64.7384 33.6692H61.7998C61.3639 33.6692 61.0103 34.0224 61.0103 34.458V37.3973C61.0103 37.8328 61.3639 38.1861 61.7998 38.1861H64.7384C65.1747 38.1861 65.5279 37.8328 65.5279 37.3973V34.458C65.5279 34.0224 65.1747 33.6692 64.7384 33.6692Z" fill="url(#paint3_linear_3_343)"/>
<path d="M61.0992 26.0352H63.1984C63.5357 26.0352 63.8094 25.7615 63.8094 25.4243V23.3251C63.8094 22.9875 63.5357 22.7141 63.1984 22.7141H61.0992C60.7616 22.7141 60.4886 22.9875 60.4886 23.3251V25.4243C60.4886 25.7619 60.7616 26.0352 61.0992 26.0352Z" fill="url(#paint4_linear_3_343)"/>
<path d="M39.71 44.3762C39.6359 44.3762 39.5649 44.3588 39.4914 44.3531C40.642 47.2026 41.3958 50.2395 41.6803 53.3978C43.8407 52.5297 45.8586 51.304 47.6429 49.7441V36.6375L41.6946 43.4728C41.1948 44.0474 40.4713 44.3762 39.71 44.3762Z" fill="url(#paint5_linear_3_343)"/>
<path d="M33.89 13.0955C25.831 13.0955 18.8277 17.6821 15.3396 24.379C17.5775 24.8088 19.7409 25.4677 21.7996 26.3419V20.5748C21.7996 18.8901 23.1705 17.5185 24.8556 17.5185C26.188 17.5185 27.4922 18.0601 28.4473 19.0183L39.7142 30.7408L49.7078 20.3392C45.7247 15.724 40.0093 13.0955 33.89 13.0955Z" fill="url(#paint6_linear_3_343)"/>
<path d="M59.7737 39.9746H54.5894C54.2746 39.9746 54.0182 40.2323 54.0182 40.5472V45.7308C54.0182 46.0456 54.2746 46.3034 54.5894 46.3034H59.7737C60.0886 46.3034 60.3449 46.0456 60.3449 45.7308V40.5472C60.3449 40.2323 60.0886 39.9746 59.7737 39.9746Z" fill="url(#paint7_linear_3_343)"/>
<path d="M55.8395 32.3425H59.4081C59.6601 32.3425 59.8641 32.1368 59.8641 31.8855V28.3176C59.8641 28.0666 59.6597 27.8606 59.4081 27.8606H55.8395C55.5882 27.8606 55.3835 28.0663 55.3835 28.3176V31.8855C55.3835 32.1368 55.5882 32.3425 55.8395 32.3425Z" fill="url(#paint8_linear_3_343)"/>
<path d="M64.7387 34.333H61.8001C61.7311 34.333 61.675 34.3894 61.675 34.4585V37.3978C61.675 37.4668 61.7314 37.5226 61.8001 37.5226H64.7387C64.8074 37.5226 64.8632 37.4668 64.8632 37.3978V34.4585C64.8628 34.3894 64.8071 34.333 64.7387 34.333Z" fill="url(#paint9_linear_3_343)"/>
<path d="M63.1464 23.3252H61.0992V25.3713H63.1464V23.3252Z" fill="url(#paint10_linear_3_343)"/>
<path d="M87.284 38.4618C86.8807 39.2472 86.3286 39.6083 85.7978 39.6083C85.246 39.6083 84.7363 39.2047 84.3328 38.3979L81.5726 32.7287V41.7527H78.6211V26.6353H81.5301L85.7978 35.362L90.0444 26.6353H92.9535V41.753H90.0019V32.7291L87.284 38.4618Z" fill="#323232"/>
<path d="M102.34 41.7532L101.49 40.2878L98.5384 41.8804C95.1411 41.8804 94.4832 39.2474 94.4832 35.7866C94.4832 32.8143 94.6529 29.7138 98.5173 29.7138H101.426L104.186 29.5442V41.7532H102.34ZM101.427 32.1982H99.3245C97.668 32.1982 97.2437 33.5572 97.2437 35.7866C97.2437 38.0163 97.668 38.9717 99.3245 38.9717L101.427 37.8881V32.1982Z" fill="#323232"/>
<path d="M113.36 41.7532L111.215 38.0373L109.198 41.7532H105.886L109.814 35.5744L106.035 29.6292H109.134L111.258 33.1325L113.318 29.6292H116.418L112.638 35.5744L116.46 41.7532H113.36Z" fill="#323232"/>
<path d="M125.336 41.7531L124.487 40.2877L121.536 41.8802C118.138 41.8802 117.48 39.2473 117.48 35.7864C117.48 32.8141 117.65 29.7137 121.514 29.7137H124.423V25.7856H127.184V41.7531H125.336ZM124.423 32.198H122.321C120.665 32.198 120.24 33.557 120.24 35.7864C120.24 38.0161 120.665 38.9715 122.321 38.9715L124.423 37.8879V32.198Z" fill="#323232"/>
<path d="M131.685 28.2062C130.369 28.2062 130.072 27.909 130.072 26.5926C130.072 25.2764 130.369 25 131.685 25C133.002 25 133.278 25.2764 133.278 26.5926C133.278 27.909 133.002 28.2062 131.685 28.2062ZM130.284 41.7532V30.0748H133.044V41.7532H130.284Z" fill="#323232"/>
<path d="M142.769 41.7533V34.0033C142.769 32.4954 142.026 32.1982 141.156 32.1982L138.671 33.2386V41.7533H135.911V29.6292H137.971L138.608 31.0728L142.005 29.5017C143.109 29.5017 143.789 29.8631 144.405 30.4785C145.296 31.3703 145.53 32.4107 145.53 33.6208V41.7533H142.769Z" fill="#323232"/>
<path d="M152.495 42.0501C148.334 42.0501 147.399 39.4603 147.399 35.638C147.399 32.1136 148.355 29.4592 152.495 29.4592C156.487 29.4592 157.613 31.8586 157.613 35.638C157.612 39.5028 156.72 42.0501 152.495 42.0501ZM154.852 35.1709C154.852 33.4301 154.618 31.9439 152.495 31.9439C150.627 31.9439 150.159 33.4726 150.159 35.0862V36.1902C150.159 37.7192 150.563 39.5664 152.495 39.5664C154.618 39.5664 154.852 37.7192 154.852 36.2752V35.1709Z" fill="#323232"/>
<defs>
<linearGradient id="paint0_linear_3_343" x1="93.0132" y1="-12.0703" x2="29.0324" y2="37.785" gradientUnits="userSpaceOnUse">
<stop stop-color="#FAAF40"/>
<stop offset="0.5222" stop-color="#F16522"/>
<stop offset="1" stop-color="#E23D21"/>
</linearGradient>
<linearGradient id="paint1_linear_3_343" x1="106.244" y1="4.90882" x2="42.2628" y2="54.7645" gradientUnits="userSpaceOnUse">
<stop stop-color="#FAAF40"/>
<stop offset="0.5222" stop-color="#F16522"/>
<stop offset="1" stop-color="#E23D21"/>
</linearGradient>
<linearGradient id="paint2_linear_3_343" x1="100.149" y1="-3.03556" x2="36.1693" y2="46.819" gradientUnits="userSpaceOnUse">
<stop stop-color="#FAAF40"/>
<stop offset="0.5222" stop-color="#F16522"/>
<stop offset="1" stop-color="#E23D21"/>
</linearGradient>
<linearGradient id="paint3_linear_3_343" x1="104.831" y1="3.54209" x2="40.8533" y2="53.3945" gradientUnits="userSpaceOnUse">
<stop stop-color="#FAAF40"/>
<stop offset="0.5222" stop-color="#F16522"/>
<stop offset="1" stop-color="#E23D21"/>
</linearGradient>
<linearGradient id="paint4_linear_3_343" x1="99.0226" y1="-4.35801" x2="35.0415" y2="45.4975" gradientUnits="userSpaceOnUse">
<stop stop-color="#FAAF40"/>
<stop offset="0.5222" stop-color="#F16522"/>
<stop offset="1" stop-color="#E23D21"/>
</linearGradient>
<linearGradient id="paint5_linear_3_343" x1="66.1413" y1="9.56424" x2="36.2286" y2="59.2341" gradientUnits="userSpaceOnUse">
<stop stop-color="#FAAF40"/>
<stop offset="0.5222" stop-color="#F16522"/>
<stop offset="1" stop-color="#E23D21"/>
</linearGradient>
<linearGradient id="paint6_linear_3_343" x1="47.1091" y1="-1.89855" x2="17.1961" y2="47.7719" gradientUnits="userSpaceOnUse">
<stop stop-color="#FAAF40"/>
<stop offset="0.5222" stop-color="#F16522"/>
<stop offset="1" stop-color="#E23D21"/>
</linearGradient>
<linearGradient id="paint7_linear_3_343" x1="74.4056" y1="14.5388" x2="44.4914" y2="64.2112" gradientUnits="userSpaceOnUse">
<stop stop-color="#FAAF40"/>
<stop offset="0.5222" stop-color="#F16522"/>
<stop offset="1" stop-color="#E23D21"/>
</linearGradient>
<linearGradient id="paint8_linear_3_343" x1="68.8906" y1="11.3933" x2="38.9761" y2="61.0661" gradientUnits="userSpaceOnUse">
<stop stop-color="#FAAF40"/>
<stop offset="0.5222" stop-color="#F16522"/>
<stop offset="1" stop-color="#E23D21"/>
</linearGradient>
<linearGradient id="paint9_linear_3_343" x1="75.4905" y1="15.6348" x2="45.5771" y2="65.3056" gradientUnits="userSpaceOnUse">
<stop stop-color="#FAAF40"/>
<stop offset="0.5222" stop-color="#F16522"/>
<stop offset="1" stop-color="#E23D21"/>
</linearGradient>
<linearGradient id="paint10_linear_3_343" x1="69.7832" y1="11.6289" x2="39.6673" y2="61.6362" gradientUnits="userSpaceOnUse">
<stop stop-color="#FAAF40"/>
<stop offset="0.5222" stop-color="#F16522"/>
<stop offset="1" stop-color="#E23D21"/>
</linearGradient>
</defs>
</svg>
