<svg width="42" height="41" viewBox="0 0 42 41" fill="none" xmlns="http://www.w3.org/2000/svg">
<g clip-path="url(#clip0_3_48)">
<rect opacity="0.1" y="0.496094" width="42" height="40" rx="20" fill="white"/>
<path opacity="0.6" d="M27.6771 17.5795C28.3021 17.1107 28.8646 16.5482 29.3021 15.892C28.7396 16.142 28.0833 16.3295 27.4271 16.392C28.1146 15.9857 28.6146 15.3607 28.8646 14.5795C28.2396 14.9545 27.5208 15.2357 26.8021 15.392C26.1771 14.7357 25.3333 14.3607 24.3958 14.3607C22.5833 14.3607 21.1146 15.8295 21.1146 17.642C21.1146 17.892 21.1458 18.142 21.2083 18.392C18.4896 18.2357 16.0521 16.9232 14.4271 14.9545C14.1458 15.4232 13.9896 15.9857 13.9896 16.6107C13.9896 17.7357 14.5521 18.7357 15.4583 19.3295C14.9271 19.2982 14.3958 19.1732 13.9583 18.9232V18.9545C13.9583 20.5482 15.0833 21.8607 16.5833 22.1732C16.3333 22.2357 16.0208 22.2982 15.7396 22.2982C15.5208 22.2982 15.3333 22.267 15.1146 22.2357C15.5208 23.5482 16.7396 24.4857 18.1771 24.517C17.0521 25.392 15.6458 25.9232 14.1146 25.9232C13.8333 25.9232 13.5833 25.892 13.3333 25.8607C14.7708 26.7982 16.4896 27.3295 18.3646 27.3295C24.3958 27.3295 27.6771 22.3607 27.6771 18.017C27.6771 17.8607 27.6771 17.7357 27.6771 17.5795Z" fill="white"/>
</g>
<defs>
<clipPath id="clip0_3_48">
<rect width="42" height="40" fill="white" transform="translate(0 0.496094)"/>
</clipPath>
</defs>
</svg>
