<svg width="144" height="23" viewBox="0 0 144 23" fill="none" xmlns="http://www.w3.org/2000/svg">
<path d="M10.4019 2.52958L7.94151 7.56391L2.37725 8.3588C1.3931 8.51021 1.01457 9.72148 1.73376 10.4407L5.70824 14.3394L4.76193 19.828C4.61052 20.8121 5.67038 21.5692 6.54098 21.115L11.4996 18.5032L16.4204 21.115C17.291 21.5692 18.3508 20.8121 18.1994 19.828L17.2531 14.3394L21.2276 10.4407C21.9468 9.72148 21.5683 8.51021 20.5841 8.3588L15.0577 7.56391L12.5595 2.52958C12.1431 1.65898 10.8561 1.62113 10.4019 2.52958Z" fill="white"/>
<path d="M40.8562 2.52961L38.3958 7.56394L32.8315 8.35883C31.8474 8.51024 31.4689 9.72151 32.188 10.4407L36.1625 14.3395L35.2162 19.828C35.0648 20.8122 36.1247 21.5692 36.9953 21.115L41.9539 18.5032L46.8747 21.115C47.7453 21.5692 48.8051 20.8122 48.6537 19.828L47.7074 14.3395L51.6819 10.4407C52.4011 9.72151 52.0226 8.51024 51.0384 8.35883L45.512 7.56394L43.0138 2.52961C42.5974 1.65901 41.3104 1.62116 40.8562 2.52961Z" fill="white"/>
<path d="M71.3106 2.52961L68.8502 7.56394L63.2859 8.35883C62.3018 8.51024 61.9233 9.72151 62.6425 10.4407L66.6169 14.3395L65.6706 19.828C65.5192 20.8122 66.5791 21.5692 67.4497 21.115L72.4083 18.5032L77.3291 21.115C78.1997 21.5692 79.2595 20.8122 79.1081 19.828L78.1618 14.3395L82.1363 10.4407C82.8555 9.72151 82.477 8.51024 81.4928 8.35883L75.9664 7.56394L73.4682 2.52961C73.0518 1.65901 71.7648 1.62116 71.3106 2.52961Z" fill="white"/>
<path d="M101.765 2.52961L99.3046 7.56394L93.7403 8.35883C92.7562 8.51024 92.3777 9.72151 93.0969 10.4407L97.0713 14.3395L96.125 19.828C95.9736 20.8122 97.0335 21.5692 97.9041 21.115L102.863 18.5032L107.783 21.115C108.654 21.5692 109.714 20.8122 109.563 19.828L108.616 14.3395L112.591 10.4407C113.31 9.72151 112.931 8.51024 111.947 8.35883L106.421 7.56394L103.923 2.52961C103.506 1.65901 102.219 1.62116 101.765 2.52961Z" fill="white"/>
<path d="M132.223 2.52961L129.763 7.56394L124.199 8.35883C123.215 8.51024 122.836 9.72151 123.555 10.4407L127.53 14.3395L126.583 19.828C126.432 20.8122 127.492 21.5692 128.362 21.115L133.321 18.5032L138.242 21.115C139.112 21.5692 140.172 20.8122 140.021 19.828L139.075 14.3395L143.049 10.4407C143.768 9.72151 143.39 8.51024 142.406 8.35883L136.879 7.56394L134.381 2.52961C133.965 1.65901 132.678 1.62116 132.223 2.52961Z" fill="white"/>
</svg>
