<svg width="24" height="24" viewBox="0 0 24 24" fill="none" xmlns="http://www.w3.org/2000/svg">
<path fill-rule="evenodd" clip-rule="evenodd" d="M1.49957 12C1.49957 11.8011 1.57859 11.6103 1.71924 11.4696C1.8599 11.329 2.05066 11.25 2.24957 11.25H19.9391L15.2186 6.53097C15.1488 6.46124 15.0935 6.37846 15.0558 6.28735C15.0181 6.19624 14.9986 6.09859 14.9986 5.99997C14.9986 5.90135 15.0181 5.8037 15.0558 5.7126C15.0935 5.62149 15.1488 5.5387 15.2186 5.46897C15.2883 5.39924 15.3711 5.34392 15.4622 5.30619C15.5533 5.26845 15.651 5.24902 15.7496 5.24902C15.8482 5.24902 15.9458 5.26845 16.037 5.30619C16.1281 5.34392 16.2108 5.39924 16.2806 5.46897L22.2806 11.469C22.3504 11.5386 22.4058 11.6214 22.4436 11.7125C22.4815 11.8036 22.5009 11.9013 22.5009 12C22.5009 12.0986 22.4815 12.1963 22.4436 12.2874C22.4058 12.3785 22.3504 12.4613 22.2806 12.531L16.2806 18.531C16.2108 18.6007 16.1281 18.656 16.037 18.6938C15.9458 18.7315 15.8482 18.7509 15.7496 18.7509C15.651 18.7509 15.5533 18.7315 15.4622 18.6938C15.3711 18.656 15.2883 18.6007 15.2186 18.531C15.1488 18.4612 15.0935 18.3785 15.0558 18.2873C15.0181 18.1962 14.9986 18.0986 14.9986 18C14.9986 17.9014 15.0181 17.8037 15.0558 17.7126C15.0935 17.6215 15.1488 17.5387 15.2186 17.469L19.9391 12.75H2.24957C2.05066 12.75 1.8599 12.671 1.71924 12.5303C1.57859 12.3896 1.49957 12.1989 1.49957 12Z" fill="#FFA502"/>
</svg>
