<svg width="15" height="15" viewBox="0 0 15 15" fill="none" xmlns="http://www.w3.org/2000/svg">
<path d="M7.99977 4.0567C5.99977 4.0567 4.40602 5.6817 4.40602 7.65045C4.40602 9.65045 5.99977 11.2442 7.99977 11.2442C9.96852 11.2442 11.5935 9.65045 11.5935 7.65045C11.5935 5.6817 9.96852 4.0567 7.99977 4.0567ZM7.99977 9.9942C6.71852 9.9942 5.65602 8.96295 5.65602 7.65045C5.65602 6.3692 6.68727 5.33795 7.99977 5.33795C9.28102 5.33795 10.3123 6.3692 10.3123 7.65045C10.3123 8.96295 9.28102 9.9942 7.99977 9.9942ZM12.5623 3.9317C12.5623 3.46295 12.1873 3.08795 11.7185 3.08795C11.2498 3.08795 10.8748 3.46295 10.8748 3.9317C10.8748 4.40045 11.2498 4.77545 11.7185 4.77545C12.1873 4.77545 12.5623 4.40045 12.5623 3.9317ZM14.9373 4.77545C14.8748 3.65045 14.6248 2.65045 13.8123 1.83795C12.9998 1.02545 11.9998 0.775452 10.8748 0.712952C9.71852 0.650452 6.24977 0.650452 5.09352 0.712952C3.96852 0.775452 2.99977 1.02545 2.15602 1.83795C1.34352 2.65045 1.09352 3.65045 1.03102 4.77545C0.968521 5.9317 0.968521 9.40045 1.03102 10.5567C1.09352 11.6817 1.34352 12.6505 2.15602 13.4942C2.99977 14.3067 3.96852 14.5567 5.09352 14.6192C6.24977 14.6817 9.71852 14.6817 10.8748 14.6192C11.9998 14.5567 12.9998 14.3067 13.8123 13.4942C14.6248 12.6505 14.8748 11.6817 14.9373 10.5567C14.9998 9.40045 14.9998 5.9317 14.9373 4.77545ZM13.4373 11.7755C13.2185 12.4005 12.7185 12.8692 12.1248 13.1192C11.1873 13.4942 8.99977 13.4005 7.99977 13.4005C6.96852 13.4005 4.78102 13.4942 3.87477 13.1192C3.24977 12.8692 2.78102 12.4005 2.53102 11.7755C2.15602 10.8692 2.24977 8.6817 2.24977 7.65045C2.24977 6.65045 2.15602 4.46295 2.53102 3.52545C2.78102 2.9317 3.24977 2.46295 3.87477 2.21295C4.78102 1.83795 6.96852 1.9317 7.99977 1.9317C8.99977 1.9317 11.1873 1.83795 12.1248 2.21295C12.7185 2.4317 13.1873 2.9317 13.4373 3.52545C13.8123 4.46295 13.7185 6.65045 13.7185 7.65045C13.7185 8.6817 13.8123 10.8692 13.4373 11.7755Z" fill="#3B3B3B"/>
</svg>
