<svg width="40" height="41" viewBox="0 0 40 41" fill="none" xmlns="http://www.w3.org/2000/svg">
<g clip-path="url(#clip0_3_58)">
<rect opacity="0.1" y="0.496094" width="40" height="40" rx="20" fill="white"/>
<path opacity="0.6" d="M26.3333 13.8295H14.3021C13.7708 13.8295 13.3333 14.2982 13.3333 14.8607V26.8295C13.3333 27.392 13.7708 27.8295 14.3021 27.8295H26.3333C26.8646 27.8295 27.3333 27.392 27.3333 26.8295V14.8607C27.3333 14.2982 26.8646 13.8295 26.3333 13.8295ZM17.5521 25.8295H15.4896V19.1732H17.5521V25.8295ZM16.5208 18.2357C15.8333 18.2357 15.3021 17.7045 15.3021 17.0482C15.3021 16.392 15.8333 15.8295 16.5208 15.8295C17.1771 15.8295 17.7083 16.392 17.7083 17.0482C17.7083 17.7045 17.1771 18.2357 16.5208 18.2357ZM25.3333 25.8295H23.2396V22.5795C23.2396 21.8295 23.2396 20.8295 22.1771 20.8295C21.0833 20.8295 20.9271 21.6732 20.9271 22.5482V25.8295H18.8646V19.1732H20.8333V20.0795H20.8646C21.1458 19.5482 21.8333 18.9857 22.8333 18.9857C24.9271 18.9857 25.3333 20.392 25.3333 22.1732V25.8295Z" fill="white"/>
</g>
<defs>
<clipPath id="clip0_3_58">
<rect width="40" height="40" fill="white" transform="translate(0 0.496094)"/>
</clipPath>
</defs>
</svg>
