<svg width="16" height="14" viewBox="0 0 16 14" fill="none" xmlns="http://www.w3.org/2000/svg">
<path d="M14.3435 3.40045C14.9685 2.9317 15.531 2.3692 15.9685 1.71295C15.406 1.96295 14.7498 2.15045 14.0935 2.21295C14.781 1.8067 15.281 1.1817 15.531 0.400452C14.906 0.775452 14.1873 1.0567 13.4685 1.21295C12.8435 0.556702 11.9998 0.181702 11.0623 0.181702C9.24976 0.181702 7.78101 1.65045 7.78101 3.46295C7.78101 3.71295 7.81226 3.96295 7.87476 4.21295C5.15601 4.0567 2.71851 2.7442 1.09351 0.775452C0.812256 1.2442 0.656006 1.8067 0.656006 2.4317C0.656006 3.5567 1.21851 4.5567 2.12476 5.15045C1.59351 5.1192 1.06226 4.9942 0.624756 4.7442V4.77545C0.624756 6.3692 1.74976 7.6817 3.24976 7.9942C2.99976 8.0567 2.68726 8.1192 2.40601 8.1192C2.18726 8.1192 1.99976 8.08795 1.78101 8.0567C2.18726 9.3692 3.40601 10.3067 4.84351 10.338C3.71851 11.213 2.31226 11.7442 0.781006 11.7442C0.499756 11.7442 0.249756 11.713 -0.000244141 11.6817C1.43726 12.6192 3.15601 13.1505 5.03101 13.1505C11.0623 13.1505 14.3435 8.1817 14.3435 3.83795C14.3435 3.6817 14.3435 3.5567 14.3435 3.40045Z" fill="#3B3B3B"/>
</svg>
