<svg width="206" height="82" viewBox="0 0 206 82" fill="none" xmlns="http://www.w3.org/2000/svg">
<path d="M84.9586 41.3906H79.5601L79.9017 41.7087V47.3991H76.2744V30.2004H84.9586C89.0551 30.2004 91.4657 32.5153 91.4657 35.785C91.4657 38.9273 89.0551 41.3906 84.9586 41.3906ZM84.9586 33.428H79.5601L79.9017 33.7461V37.8228L79.5601 38.1626H84.9586C86.9856 38.1626 87.7746 37.1643 87.7746 35.7846C87.7746 34.3406 86.9856 33.428 84.9586 33.428Z" fill="#EC1C24"/>
<path d="M101.963 37.1011H100.896C98.379 37.1011 97.2267 38.2692 97.2267 40.7747V47.3991H93.6633V34.0224H97.2267V35.8059H97.2695C98.0371 34.5956 99.3604 33.874 101.174 33.874H101.964V37.1011H101.963Z" fill="#EC1C24"/>
<path d="M110.028 47.6115C105.249 47.6115 102.88 44.5963 102.88 40.7108C102.88 36.8256 105.249 33.8101 110.006 33.8101C114.807 33.8101 117.175 36.8039 117.175 40.7108C117.175 44.575 114.765 47.6115 110.028 47.6115ZM110.028 36.8678C107.511 36.8678 106.444 38.3967 106.444 40.7108C106.444 43.0043 107.553 44.5754 110.028 44.5754C112.525 44.5754 113.613 43.0043 113.613 40.7108C113.613 38.4176 112.524 36.8678 110.028 36.8678Z" fill="#EC1C24"/>
<path d="M137.125 47.3991H134.565V35.7637H134.522L133.583 38.0355L128.399 47.6332H128.334L123.128 37.972L122.232 35.785H122.19V47.3995H119.629V30.2004H121.826L127.524 40.9023L128.377 42.9408H128.42L129.252 40.9023L134.97 30.2004H137.125V47.3991Z" fill="#182932"/>
<path d="M152.85 41.7937H142.032L142.289 42.0483C142.673 44.129 144.017 45.4033 146.449 45.4033C147.857 45.4033 149.031 44.8937 150.097 43.8957L151.805 45.5944C150.289 46.9748 148.498 47.6116 146.449 47.6116C141.819 47.6116 139.686 44.6604 139.686 40.817C139.686 36.7617 142.118 33.8105 146.342 33.8105C150.802 33.8105 152.914 36.8257 152.914 40.817C152.914 41.1356 152.893 41.4538 152.85 41.7937ZM150.567 39.628L150.311 39.3734C149.927 37.3345 148.647 36.018 146.342 36.018C143.974 36.018 142.758 37.3985 142.332 39.3734L142.054 39.628H150.567Z" fill="#182932"/>
<path d="M167.701 47.3991H165.204V46.0826H165.161C164.243 47.081 162.857 47.6115 161.107 47.6115C156.861 47.6115 154.728 44.7239 154.728 40.7748C154.728 36.7617 156.861 33.8101 161.107 33.8101C162.771 33.8101 164.265 34.4468 165.161 35.4452H165.204V29.5637H167.701V47.3991ZM161.3 36.061C158.398 36.061 157.224 38.0774 157.224 40.753C157.224 43.4287 158.355 45.3819 161.3 45.3819C164.244 45.3819 165.375 43.4283 165.375 40.753C165.375 38.0565 164.266 36.061 161.3 36.061Z" fill="#182932"/>
<path d="M172.266 32.5789C171.327 32.5789 170.772 31.9208 170.772 31.0073C170.772 30.0938 171.349 29.4358 172.266 29.4358C173.205 29.4358 173.76 30.0938 173.76 31.0073C173.76 31.9208 173.184 32.5789 172.266 32.5789ZM173.503 47.3991H171.007V34.0225H173.503V47.3991Z" fill="#182932"/>
<path d="M188.439 47.3991H185.942V46.3802H185.899C184.747 47.2933 183.275 47.6332 181.824 47.6332C179.093 47.6332 176.063 46.6135 176.063 43.4073C176.063 39.2245 181.547 38.9699 184.939 38.9699C185.281 38.9699 185.942 38.9912 186.198 39.0121L185.942 38.7579C185.921 38.7153 185.942 38.5242 185.921 38.5033C185.793 36.719 184.363 36.0614 182.507 36.0614C181.142 36.0614 179.605 36.3586 178.431 37.3348L176.789 35.6575C178.602 34.2565 180.416 33.8318 182.507 33.8318C185.43 33.8318 188.439 34.9572 188.439 38.7788V47.3991H188.439ZM186.198 41.1564C185.964 41.1564 185.366 41.1142 185.046 41.1142C184.427 41.1142 183.681 41.1142 182.912 41.1564C182.144 41.1991 181.334 41.3049 180.629 41.4746C179.349 41.7932 178.539 42.3881 178.539 43.4069C178.539 44.9998 180.48 45.4028 181.824 45.4028C183.083 45.4028 185.942 45.1269 185.942 43.4069V41.411L186.198 41.1564Z" fill="#182932"/>
<path d="M56.2678 36.7479C43.3396 36.4236 41.3736 14.5706 18.8355 19.8858C42.753 17.7956 40.9982 51.5226 56.2678 36.7479Z" fill="url(#paint0_radial_3_302)"/>
<path d="M56.2764 27.0534C49.4636 20.0695 27.5876 9.54193 18.8718 19.8419C18.8594 19.8571 18.8545 19.8813 18.8355 19.8854C41.3472 14.9855 42.6887 36.6667 56.2678 36.7475C56.2793 36.7475 56.2892 36.7233 56.2995 36.711C59.0999 33.5667 59.2964 30.1526 56.2764 27.0534Z" fill="url(#paint1_linear_3_302)"/>
<path d="M60.3517 34.5527C50.2112 56.211 21.7382 37.834 26.9608 58.3823C34.0134 47.2873 53.8433 56.7177 60.3517 34.5527Z" fill="url(#paint2_radial_3_302)"/>
<path d="M60.3707 34.606C60.3645 34.588 60.3456 34.5708 60.3517 34.5527C53.3597 56.4041 33.8206 46.7203 26.9608 58.3823C26.955 58.3918 26.9707 58.4123 26.9756 58.427C28.313 62.4131 31.1863 64.2905 35.3924 63.2363C44.8766 60.8579 64.9756 47.2681 60.3707 34.606Z" fill="url(#paint3_linear_3_302)"/>
<path d="M22.7872 22.3076C28.9828 33.7704 10.8392 46.4673 26.8293 63.0001C13.0516 43.4312 43.2801 28.08 22.7872 22.3076Z" fill="url(#paint4_radial_3_302)"/>
<path d="M22.7873 22.3077C22.782 22.2978 22.756 22.3015 22.7404 22.2987C18.6035 21.4582 15.5332 22.9957 14.3471 27.1477C11.6744 36.5105 13.4518 60.6275 26.7734 62.9895C26.7928 62.9932 26.8163 62.985 26.8299 62.9998C11.309 46.0479 29.5062 34.0501 22.7873 22.3077Z" fill="url(#paint5_linear_3_302)"/>
<path d="M26.3269 47.4266C29.0304 45.0146 33.2707 44.6312 37.7269 44.2388C40.7782 43.9707 43.9975 43.6833 47.036 42.7838C43.5958 41.6649 41.1399 38.1918 38.5694 34.5456C36.8139 32.0565 34.9554 29.4227 32.6527 27.2505C33.3968 30.7847 31.6058 34.6264 29.7197 38.6633C28.4264 41.4312 27.0631 44.3528 26.3269 47.4266Z" fill="url(#paint6_radial_3_302)"/>
<defs>
<radialGradient id="paint0_radial_3_302" cx="0" cy="0" r="1" gradientUnits="userSpaceOnUse" gradientTransform="translate(35.2577 38.2066) scale(14.8339 14.7618)">
<stop stop-color="white"/>
<stop offset="0.4" stop-color="#E01B22"/>
<stop offset="0.6848" stop-color="#CD181F"/>
<stop offset="1" stop-color="#931216"/>
</radialGradient>
<linearGradient id="paint1_linear_3_302" x1="72.5518" y1="-6.84708" x2="16.3419" y2="50.1325" gradientUnits="userSpaceOnUse">
<stop stop-color="white"/>
<stop offset="0.4" stop-color="#EC1C24"/>
<stop offset="0.6848" stop-color="#EC1C24"/>
<stop offset="1" stop-color="#AD1B1F"/>
</linearGradient>
<radialGradient id="paint2_radial_3_302" cx="0" cy="0" r="1" gradientUnits="userSpaceOnUse" gradientTransform="translate(35.2569 38.2177) scale(14.8334 14.7614)">
<stop stop-color="white"/>
<stop offset="0.4" stop-color="#E01B22"/>
<stop offset="0.6848" stop-color="#CD181F"/>
<stop offset="1" stop-color="#931216"/>
</radialGradient>
<linearGradient id="paint3_linear_3_302" x1="74.7025" y1="20.5572" x2="35.8375" y2="59.9544" gradientUnits="userSpaceOnUse">
<stop stop-color="white"/>
<stop offset="0.4" stop-color="#EC1C24"/>
<stop offset="0.6848" stop-color="#EC1C24"/>
<stop offset="1" stop-color="#AD1B1F"/>
</linearGradient>
<radialGradient id="paint4_radial_3_302" cx="0" cy="0" r="1" gradientUnits="userSpaceOnUse" gradientTransform="translate(35.4236 38.2178) scale(14.8533 14.7812)">
<stop stop-color="white"/>
<stop offset="0.4" stop-color="#E01B22"/>
<stop offset="0.6848" stop-color="#CD181F"/>
<stop offset="1" stop-color="#931216"/>
</radialGradient>
<linearGradient id="paint5_linear_3_302" x1="40.1849" y1="10.2976" x2="18.2144" y2="49.3582" gradientUnits="userSpaceOnUse">
<stop stop-color="white"/>
<stop offset="0.4" stop-color="#EC1C24"/>
<stop offset="0.6848" stop-color="#EC1C24"/>
<stop offset="1" stop-color="#AD1B1F"/>
</linearGradient>
<radialGradient id="paint6_radial_3_302" cx="0" cy="0" r="1" gradientUnits="userSpaceOnUse" gradientTransform="translate(38.5967 21.6033) scale(32.1682 32.0121)">
<stop stop-color="white"/>
<stop offset="0.2191" stop-color="#B1B9BA"/>
<stop offset="0.5188" stop-color="#61696B"/>
<stop offset="0.5896" stop-color="#52595C"/>
<stop offset="0.7365" stop-color="#393E42"/>
<stop offset="0.8226" stop-color="#2F3438"/>
<stop offset="1" stop-color="#939C9E"/>
</radialGradient>
</defs>
</svg>
