<svg width="74" height="43" viewBox="0 0 74 43" fill="none" xmlns="http://www.w3.org/2000/svg">
<path fill-rule="evenodd" clip-rule="evenodd" d="M14.2387 39.6829L15.5147 42.0222L16.7878 39.6886C16.374 39.7346 15.9602 39.7662 15.5492 39.7662C15.1181 39.7662 14.6756 39.7346 14.2387 39.6829ZM10.6694 33.1506L13.641 38.5908C13.7473 38.6109 13.8594 38.6282 13.9657 38.6425C14.4945 38.7201 15.0319 38.769 15.5521 38.769C16.0723 38.769 16.6125 38.7201 17.1413 38.6425C17.2218 38.6311 17.3023 38.6138 17.3856 38.6023L20.3543 33.165C20.1905 33.1851 20.0238 33.1966 19.837 33.1966C18.561 33.1966 17.8828 32.6678 17.2103 32.1362C16.7534 31.7827 16.2964 31.4235 15.5578 31.4235C14.8193 31.4235 14.3652 31.7827 13.9054 32.1362C13.2329 32.6678 12.5547 33.1966 11.2787 33.1966C11.0574 33.1966 10.8591 33.1823 10.6694 33.1506Z" fill="white"/>
<path fill-rule="evenodd" clip-rule="evenodd" d="M15.5514 13.4244H15.56C19.0201 13.4273 22.1641 14.8441 24.4431 17.1231C26.7134 19.3963 28.1244 22.5316 28.1302 25.986V26.0061V26.0147C28.1273 29.472 26.7105 32.6188 24.4316 34.8978C23.009 36.3175 21.2473 37.4009 19.2816 38.0159L21.0692 34.6592C21.6985 34.2569 22.2819 33.7913 22.8078 33.2654C24.6672 31.4089 25.8225 28.8397 25.8254 26.0147V26.0061V25.986C25.8225 23.1639 24.6643 20.6004 22.8107 18.7439C20.9542 16.8845 18.3879 15.7293 15.56 15.7293H15.5514H15.5313C12.7149 15.7321 10.1543 16.8874 8.29782 18.7439H8.29207C6.4327 20.6004 5.28029 23.1696 5.27742 25.9975V26.0061V26.0262C5.28316 28.8455 6.4327 31.4061 8.29207 33.2654C8.77201 33.7454 9.30079 34.1736 9.86694 34.5529L11.6832 37.9699C9.7721 37.3492 8.05067 36.2801 6.65973 34.8863C4.38652 32.6131 2.97547 29.4748 2.9726 26.0262V26.0061V25.9975C2.97547 22.5374 4.3894 19.3934 6.66835 17.1145L6.66548 17.1116C8.93869 14.8384 12.0798 13.4302 15.5313 13.4244" fill="white"/>
<path fill-rule="evenodd" clip-rule="evenodd" d="M9.63599 13.7838C13.5818 11.7405 17.5189 11.8612 21.4705 13.7838C21.4705 11.8699 21.4705 10.0536 21.4705 8.13387C18.6225 4.75711 12.2454 4.91517 9.63599 8.13387C9.63599 9.72885 9.63599 12.186 9.63599 13.7838ZM6.02932 9.65988V8.81785V4.69388V4.07026C6.02932 3.87771 6.17301 3.7139 6.36556 3.69091L9.25089 3.32594L15.5504 0.650391L31.1036 7.25448L22.5022 9.48458V7.98731L22.3843 7.66544C22.0998 7.32632 21.7722 7.0102 21.4216 6.72569C19.7864 5.40372 17.5908 4.77148 15.4297 4.79159C13.2656 4.81459 11.116 5.49569 9.58138 6.78891C9.26526 7.05618 8.97213 7.35506 8.70774 7.67693L8.59566 7.98731V9.48458L6.79089 9.01614V9.65988C6.96619 9.78346 7.08402 9.98462 7.08402 10.2174C7.08402 10.4674 6.94607 10.683 6.74778 10.8008C6.85124 10.8525 6.95182 10.9244 7.04091 11.0221L7.27369 13.2206C7.04091 13.4102 6.73916 13.5252 6.41154 13.5252C6.08392 13.5252 5.78504 13.4102 5.54364 13.2206L5.77642 11.0221C5.86551 10.9244 5.96609 10.8497 6.06955 10.8008C5.86838 10.683 5.73619 10.4674 5.73619 10.2174C5.73331 9.98462 5.85114 9.78058 6.02932 9.65988ZM0 7.25448L5.262 5.01863V8.61668L0 7.25448Z" fill="#FFBE48"/>
<path fill-rule="evenodd" clip-rule="evenodd" d="M20.7557 30.1561V14.6403H17.2812V29.5842C17.514 29.7193 17.7266 29.8716 17.9393 30.0268C18.3531 30.3257 18.767 30.6274 19.4366 30.6274C20.0113 30.6274 20.3936 30.4061 20.7557 30.1561ZM13.8268 30.3573V15.4133H10.3524V30.9292C10.7116 31.1792 11.0967 31.4034 11.6743 31.4034C12.3411 31.4034 12.7549 31.1016 13.1687 30.7999C13.3814 30.6476 13.5912 30.4924 13.8268 30.3573Z" fill="white"/>
<path d="M46.6344 15.2902H35.0586V36.2712H46.6344V33.4677H38.4951V27.0468H45.73V24.2433H38.4951V18.0937H46.6344V15.2902Z" fill="white"/>
<path d="M65.9096 19.6612H62.4731V28.9158C62.4731 31.9605 60.8151 33.528 58.2829 33.528C55.7808 33.528 54.1229 31.9605 54.1229 28.9158V19.6612H50.7164V29.4283C50.7164 34.0706 53.6707 36.5124 57.5594 36.5124C59.5189 36.5124 61.3879 35.6985 62.4731 34.2817V36.2712H65.9096V19.6612Z" fill="white"/>
<path d="M74.001 34.2817C74.001 33.0457 73.0364 32.0811 71.8306 32.0811C70.5946 32.0811 69.63 33.0457 69.63 34.2817C69.63 35.5176 70.5946 36.4823 71.8306 36.4823C73.0364 36.4823 74.001 35.5176 74.001 34.2817Z" fill="white"/>
</svg>
