<svg width="14" height="15" viewBox="0 0 14 15" fill="none" xmlns="http://www.w3.org/2000/svg">
<path d="M12.9998 0.650452H0.968521C0.437271 0.650452 -0.000228882 1.1192 -0.000228882 1.6817V13.6505C-0.000228882 14.213 0.437271 14.6505 0.968521 14.6505H12.9998C13.531 14.6505 13.9998 14.213 13.9998 13.6505V1.6817C13.9998 1.1192 13.531 0.650452 12.9998 0.650452ZM4.21852 12.6505H2.15602V5.9942H4.21852V12.6505ZM3.18727 5.0567C2.49977 5.0567 1.96852 4.52545 1.96852 3.8692C1.96852 3.21295 2.49977 2.65045 3.18727 2.65045C3.84352 2.65045 4.37477 3.21295 4.37477 3.8692C4.37477 4.52545 3.84352 5.0567 3.18727 5.0567ZM11.9998 12.6505H9.90602V9.40045C9.90602 8.65045 9.90602 7.65045 8.84352 7.65045C7.74977 7.65045 7.59352 8.4942 7.59352 9.3692V12.6505H5.53102V5.9942H7.49977V6.90045H7.53102C7.81227 6.3692 8.49977 5.8067 9.49977 5.8067C11.5935 5.8067 11.9998 7.21295 11.9998 8.9942V12.6505Z" fill="#3B3B3B"/>
</svg>
