<svg width="40" height="41" viewBox="0 0 40 41" fill="none" xmlns="http://www.w3.org/2000/svg">
<g clip-path="url(#clip0_3_53)">
<rect opacity="0.1" y="0.496094" width="40" height="40" rx="20" fill="white"/>
<path opacity="0.6" d="M20.3333 17.2357C18.3333 17.2357 16.7396 18.8607 16.7396 20.8295C16.7396 22.8295 18.3333 24.4232 20.3333 24.4232C22.3021 24.4232 23.9271 22.8295 23.9271 20.8295C23.9271 18.8607 22.3021 17.2357 20.3333 17.2357ZM20.3333 23.1732C19.0521 23.1732 17.9896 22.142 17.9896 20.8295C17.9896 19.5482 19.0208 18.517 20.3333 18.517C21.6146 18.517 22.6458 19.5482 22.6458 20.8295C22.6458 22.142 21.6146 23.1732 20.3333 23.1732ZM24.8958 17.1107C24.8958 16.642 24.5208 16.267 24.0521 16.267C23.5833 16.267 23.2083 16.642 23.2083 17.1107C23.2083 17.5795 23.5833 17.9545 24.0521 17.9545C24.5208 17.9545 24.8958 17.5795 24.8958 17.1107ZM27.2708 17.9545C27.2083 16.8295 26.9583 15.8295 26.1458 15.017C25.3333 14.2045 24.3333 13.9545 23.2083 13.892C22.0521 13.8295 18.5833 13.8295 17.4271 13.892C16.3021 13.9545 15.3333 14.2045 14.4896 15.017C13.6771 15.8295 13.4271 16.8295 13.3646 17.9545C13.3021 19.1107 13.3021 22.5795 13.3646 23.7357C13.4271 24.8607 13.6771 25.8295 14.4896 26.6732C15.3333 27.4857 16.3021 27.7357 17.4271 27.7982C18.5833 27.8607 22.0521 27.8607 23.2083 27.7982C24.3333 27.7357 25.3333 27.4857 26.1458 26.6732C26.9583 25.8295 27.2083 24.8607 27.2708 23.7357C27.3333 22.5795 27.3333 19.1107 27.2708 17.9545ZM25.7708 24.9545C25.5521 25.5795 25.0521 26.0482 24.4583 26.2982C23.5208 26.6732 21.3333 26.5795 20.3333 26.5795C19.3021 26.5795 17.1146 26.6732 16.2083 26.2982C15.5833 26.0482 15.1146 25.5795 14.8646 24.9545C14.4896 24.0482 14.5833 21.8607 14.5833 20.8295C14.5833 19.8295 14.4896 17.642 14.8646 16.7045C15.1146 16.1107 15.5833 15.642 16.2083 15.392C17.1146 15.017 19.3021 15.1107 20.3333 15.1107C21.3333 15.1107 23.5208 15.017 24.4583 15.392C25.0521 15.6107 25.5208 16.1107 25.7708 16.7045C26.1458 17.642 26.0521 19.8295 26.0521 20.8295C26.0521 21.8607 26.1458 24.0482 25.7708 24.9545Z" fill="white"/>
</g>
<defs>
<clipPath id="clip0_3_53">
<rect width="40" height="40" fill="white" transform="translate(0 0.496094)"/>
</clipPath>
</defs>
</svg>
