<svg width="32" height="33" viewBox="0 0 32 33" fill="none" xmlns="http://www.w3.org/2000/svg">
<rect x="1" y="-1" width="30" height="30" rx="15" transform="matrix(1 -8.74228e-08 -8.74228e-08 -1 -8.74228e-08 30.2505)" stroke="#111116" stroke-width="2"/>
<path d="M17.0312 9.31299C17.3437 9.62549 17.3125 10.0942 17.0312 10.4067L13.25 14.0005L22.25 14.0005C22.6562 14.0005 23 14.313 23 14.7505L23 15.7505C23 16.1567 22.6562 16.5005 22.25 16.5005L13.25 16.5005L17.0312 20.063C17.3125 20.3755 17.3437 20.8442 17.0312 21.1567L16.3437 21.8442C16.0625 22.1255 15.5625 22.1255 15.2812 21.8442L9.21875 15.7505C8.90625 15.4692 8.90625 15.0005 9.21875 14.7192L15.2812 8.62549C15.5625 8.34424 16.0312 8.34424 16.3437 8.62549L17.0312 9.31299Z" fill="#111116"/>
</svg>
