<svg width="56" height="57" viewBox="0 0 56 57" fill="none" xmlns="http://www.w3.org/2000/svg">
<g filter="url(#filter0_i_3_122)">
<rect width="56" height="56" rx="28" transform="matrix(1 -8.74228e-08 -8.74228e-08 -1 0 56.6512)" fill="#111116"/>
</g>
<path d="M26.9375 33.5574C26.625 33.2449 26.6562 32.7762 26.9375 32.4637L30.7187 28.9012L21.75 28.9012C21.3125 28.9012 21 28.5574 21 28.1512L21 27.1512C21 26.7137 21.3125 26.4012 21.75 26.4012L30.7187 26.4012L26.9375 22.8074C26.6562 22.4949 26.6562 22.0262 26.9375 21.7137L27.625 21.0262C27.9375 20.7449 28.4062 20.7449 28.6875 21.0262L34.7812 27.1199C35.0625 27.4012 35.0625 27.8699 34.7812 28.1824L28.6875 34.2449C28.4062 34.5262 27.9375 34.5262 27.625 34.2449L26.9375 33.5574Z" fill="white"/>
<defs>
<filter id="filter0_i_3_122" x="0" y="-9.34882" width="56" height="66" filterUnits="userSpaceOnUse" color-interpolation-filters="sRGB">
<feFlood flood-opacity="0" result="BackgroundImageFix"/>
<feBlend mode="normal" in="SourceGraphic" in2="BackgroundImageFix" result="shape"/>
<feColorMatrix in="SourceAlpha" type="matrix" values="0 0 0 0 0 0 0 0 0 0 0 0 0 0 0 0 0 0 127 0" result="hardAlpha"/>
<feOffset dy="-10"/>
<feGaussianBlur stdDeviation="10"/>
<feComposite in2="hardAlpha" operator="arithmetic" k2="-1" k3="1"/>
<feColorMatrix type="matrix" values="0 0 0 0 0.34691 0 0 0 0 0.34691 0 0 0 0 0.404167 0 0 0 1 0"/>
<feBlend mode="normal" in2="shape" result="effect1_innerShadow_3_122"/>
</filter>
</defs>
</svg>
