<svg width="22" height="43" viewBox="0 0 22 43" fill="none" xmlns="http://www.w3.org/2000/svg">
<path d="M6.88815 32.0213C5.03005 34.766 3.17196 36.5957 0.384824 39.3404C-0.544222 40.2553 0.384819 41.1702 1.31387 41.1702C3.17196 41.1702 4.101 42.0851 5.9591 42.0851C7.81719 42.0851 8.74623 43 10.6043 43C11.5334 43 11.5334 42.0851 10.6043 41.1702C9.67528 40.2553 7.81719 40.2553 5.9591 40.2553L5.03006 40.2553C5.9591 40.2553 6.88815 40.2553 7.8172 39.3404C9.67529 38.4255 12.4624 37.5106 14.3205 36.5957C18.0367 33.8511 20.8238 30.1915 21.7529 25.617C22.6819 21.0426 20.8238 15.5532 18.9657 11.8936C18.0367 10.0638 16.1786 7.31915 14.3205 5.48936C13.3915 4.57447 12.4624 3.65958 11.5334 2.74468C10.6043 1.82979 9.67528 0.914894 8.74623 -3.8231e-07C7.81719 -3.417e-07 6.88815 3.51361e-06 7.81719 0.914898C8.74624 1.82979 9.67528 2.74469 9.67528 3.65958C10.6043 4.57447 11.5334 5.48937 12.4624 6.40426C14.3205 8.23405 15.2496 10.0638 16.1786 11.8936C18.9657 14.6383 19.8948 19.2128 19.8948 23.7872C18.9657 28.3617 17.1077 32.0213 13.3915 33.8511C11.5334 34.766 9.67529 35.6809 7.8172 36.5957C6.88815 36.5957 5.9591 36.5957 5.9591 37.5106C6.88814 36.5957 8.74624 34.766 9.67529 33.8511C9.67529 32.0213 7.81719 31.1064 6.88815 32.0213Z" fill="white"/>
</svg>
